<mxfile host="app.diagrams.net" agent="Mozilla/5.0 (Windows NT 10.0; Win64; x64) AppleWebKit/537.36 (KHTML, like Gecko) Chrome/141.0.0.0 Safari/537.36 Edg/141.0.0.0" version="28.2.5">
  <diagram name="Página-1" id="iz6nS5sh-EYQxEadgdzI">
    <mxGraphModel dx="1418" dy="786" grid="1" gridSize="10" guides="1" tooltips="1" connect="1" arrows="1" fold="1" page="1" pageScale="1" pageWidth="827" pageHeight="1169" math="0" shadow="0">
      <root>
        <mxCell id="0" />
        <mxCell id="1" parent="0" />
        <mxCell id="4mDic75iaMkavdV9NBbc-3" value="" style="edgeStyle=orthogonalEdgeStyle;rounded=0;orthogonalLoop=1;jettySize=auto;html=1;" edge="1" parent="1" source="4mDic75iaMkavdV9NBbc-1" target="4mDic75iaMkavdV9NBbc-2">
          <mxGeometry relative="1" as="geometry" />
        </mxCell>
        <mxCell id="4mDic75iaMkavdV9NBbc-1" value="I" style="ellipse;whiteSpace=wrap;html=1;" vertex="1" parent="1">
          <mxGeometry x="340" y="140" width="120" height="80" as="geometry" />
        </mxCell>
        <mxCell id="4mDic75iaMkavdV9NBbc-5" value="" style="edgeStyle=orthogonalEdgeStyle;rounded=0;orthogonalLoop=1;jettySize=auto;html=1;" edge="1" parent="1" source="4mDic75iaMkavdV9NBbc-2" target="4mDic75iaMkavdV9NBbc-4">
          <mxGeometry relative="1" as="geometry" />
        </mxCell>
        <mxCell id="4mDic75iaMkavdV9NBbc-2" value="Ler N" style="shape=parallelogram;perimeter=parallelogramPerimeter;whiteSpace=wrap;html=1;fixedSize=1;" vertex="1" parent="1">
          <mxGeometry x="340" y="280" width="120" height="60" as="geometry" />
        </mxCell>
        <mxCell id="4mDic75iaMkavdV9NBbc-7" value="" style="edgeStyle=orthogonalEdgeStyle;rounded=0;orthogonalLoop=1;jettySize=auto;html=1;" edge="1" parent="1" source="4mDic75iaMkavdV9NBbc-4" target="4mDic75iaMkavdV9NBbc-6">
          <mxGeometry relative="1" as="geometry" />
        </mxCell>
        <mxCell id="4mDic75iaMkavdV9NBbc-26" value="1,3,5,7,8,10,12" style="edgeLabel;html=1;align=center;verticalAlign=middle;resizable=0;points=[];" vertex="1" connectable="0" parent="4mDic75iaMkavdV9NBbc-7">
          <mxGeometry x="0.3545" y="5" relative="1" as="geometry">
            <mxPoint as="offset" />
          </mxGeometry>
        </mxCell>
        <mxCell id="4mDic75iaMkavdV9NBbc-11" value="" style="edgeStyle=orthogonalEdgeStyle;rounded=0;orthogonalLoop=1;jettySize=auto;html=1;" edge="1" parent="1" source="4mDic75iaMkavdV9NBbc-4" target="4mDic75iaMkavdV9NBbc-10">
          <mxGeometry relative="1" as="geometry" />
        </mxCell>
        <mxCell id="4mDic75iaMkavdV9NBbc-27" value="4,6,9,11" style="edgeLabel;html=1;align=center;verticalAlign=middle;resizable=0;points=[];" vertex="1" connectable="0" parent="4mDic75iaMkavdV9NBbc-11">
          <mxGeometry x="-0.3" y="-2" relative="1" as="geometry">
            <mxPoint as="offset" />
          </mxGeometry>
        </mxCell>
        <mxCell id="4mDic75iaMkavdV9NBbc-25" value="" style="edgeStyle=orthogonalEdgeStyle;rounded=0;orthogonalLoop=1;jettySize=auto;html=1;" edge="1" parent="1" source="4mDic75iaMkavdV9NBbc-4" target="4mDic75iaMkavdV9NBbc-24">
          <mxGeometry relative="1" as="geometry" />
        </mxCell>
        <mxCell id="4mDic75iaMkavdV9NBbc-28" value="2" style="edgeLabel;html=1;align=center;verticalAlign=middle;resizable=0;points=[];" vertex="1" connectable="0" parent="4mDic75iaMkavdV9NBbc-25">
          <mxGeometry x="0.5182" y="1" relative="1" as="geometry">
            <mxPoint as="offset" />
          </mxGeometry>
        </mxCell>
        <mxCell id="4mDic75iaMkavdV9NBbc-4" value="N" style="shape=trapezoid;perimeter=trapezoidPerimeter;whiteSpace=wrap;html=1;fixedSize=1;" vertex="1" parent="1">
          <mxGeometry x="340" y="400" width="120" height="60" as="geometry" />
        </mxCell>
        <mxCell id="4mDic75iaMkavdV9NBbc-32" style="edgeStyle=orthogonalEdgeStyle;rounded=0;orthogonalLoop=1;jettySize=auto;html=1;" edge="1" parent="1" source="4mDic75iaMkavdV9NBbc-6" target="4mDic75iaMkavdV9NBbc-29">
          <mxGeometry relative="1" as="geometry">
            <Array as="points">
              <mxPoint x="560" y="730" />
            </Array>
          </mxGeometry>
        </mxCell>
        <mxCell id="4mDic75iaMkavdV9NBbc-6" value="Escrever &quot;este mês tem 31 dias&quot;" style="shape=parallelogram;perimeter=parallelogramPerimeter;whiteSpace=wrap;html=1;fixedSize=1;" vertex="1" parent="1">
          <mxGeometry x="500" y="540" width="120" height="60" as="geometry" />
        </mxCell>
        <mxCell id="4mDic75iaMkavdV9NBbc-31" style="edgeStyle=orthogonalEdgeStyle;rounded=0;orthogonalLoop=1;jettySize=auto;html=1;" edge="1" parent="1" source="4mDic75iaMkavdV9NBbc-10" target="4mDic75iaMkavdV9NBbc-29">
          <mxGeometry relative="1" as="geometry" />
        </mxCell>
        <mxCell id="4mDic75iaMkavdV9NBbc-10" value="Escrever &quot;este mês tem 30 dias&quot;" style="shape=parallelogram;perimeter=parallelogramPerimeter;whiteSpace=wrap;html=1;fixedSize=1;" vertex="1" parent="1">
          <mxGeometry x="340" y="540" width="120" height="60" as="geometry" />
        </mxCell>
        <mxCell id="4mDic75iaMkavdV9NBbc-30" style="edgeStyle=orthogonalEdgeStyle;rounded=0;orthogonalLoop=1;jettySize=auto;html=1;" edge="1" parent="1" source="4mDic75iaMkavdV9NBbc-24" target="4mDic75iaMkavdV9NBbc-29">
          <mxGeometry relative="1" as="geometry">
            <Array as="points">
              <mxPoint x="240" y="730" />
            </Array>
          </mxGeometry>
        </mxCell>
        <mxCell id="4mDic75iaMkavdV9NBbc-24" value="Escrever &quot;este mês tem 28 dias&quot;" style="shape=parallelogram;perimeter=parallelogramPerimeter;whiteSpace=wrap;html=1;fixedSize=1;" vertex="1" parent="1">
          <mxGeometry x="180" y="540" width="120" height="60" as="geometry" />
        </mxCell>
        <mxCell id="4mDic75iaMkavdV9NBbc-29" value="F" style="ellipse;whiteSpace=wrap;html=1;" vertex="1" parent="1">
          <mxGeometry x="353.75" y="680" width="92.5" height="80" as="geometry" />
        </mxCell>
      </root>
    </mxGraphModel>
  </diagram>
</mxfile>
